<svg xmlns="http://www.w3.org/2000/svg" xlink="http://www.w3.org/1999/xlink" width="0" height="0" style="display:none;"><symbol viewBox="0 0 24 24" id="lock-2-line"><path fill="none" d="M0 0h24v24H0z"/><path d="M6 8V7a6 6 0 1 1 12 0v1h2a1 1 0 0 1 1 1v12a1 1 0 0 1-1 1H4a1 1 0 0 1-1-1V9a1 1 0 0 1 1-1h2zm13 2H5v10h14V10zm-8 5.732a2 2 0 1 1 2 0V18h-2v-2.268zM8 8h8V7a4 4 0 1 0-8 0v1z"/></symbol><symbol viewBox="0 0 24 24" id="user-settings-line"><path fill="none" d="M0 0h24v24H0z"/><path d="M12 14v2a6 6 0 0 0-6 6H4a8 8 0 0 1 8-8zm0-1c-3.315 0-6-2.685-6-6s2.685-6 6-6 6 2.685 6 6-2.685 6-6 6zm0-2c2.21 0 4-1.79 4-4s-1.79-4-4-4-4 1.79-4 4 1.79 4 4 4zm2.595 7.812a3.51 3.51 0 0 1 0-1.623l-.992-.573 1-1.732.992.573A3.496 3.496 0 0 1 17 14.645V13.5h2v1.145c.532.158 1.012.44 1.405.812l.992-.573 1 1.732-.992.573a3.51 3.51 0 0 1 0 1.622l.992.573-1 1.732-.992-.573a3.496 3.496 0 0 1-1.405.812V22.5h-2v-1.145a3.496 3.496 0 0 1-1.405-.812l-.992.573-1-1.732.992-.572zM18 19.5a1.5 1.5 0 1 0 0-3 1.5 1.5 0 0 0 0 3z"/></symbol><symbol viewBox="0 0 24 24" id="list-check-2"><path fill="none" d="M0 0h24v24H0z"/><path d="M11 4h10v2H11V4zm0 4h6v2h-6V8zm0 6h10v2H11v-2zm0 4h6v2h-6v-2zM3 4h6v6H3V4zm2 2v2h2V6H5zm-2 8h6v6H3v-6zm2 2v2h2v-2H5z"/></symbol></svg>