<svg xmlns="http://www.w3.org/2000/svg" xlink="http://www.w3.org/1999/xlink" width="0" height="0" style="display:none;"><symbol viewBox="0 0 24 24" id="lock-2-line"><path fill="none" d="M0 0h24v24H0z"/><path d="M6 8V7a6 6 0 1 1 12 0v1h2a1 1 0 0 1 1 1v12a1 1 0 0 1-1 1H4a1 1 0 0 1-1-1V9a1 1 0 0 1 1-1h2zm13 2H5v10h14V10zm-8 5.732a2 2 0 1 1 2 0V18h-2v-2.268zM8 8h8V7a4 4 0 1 0-8 0v1z"/></symbol><symbol viewBox="0 0 24 24" id="user-settings-line"><path fill="none" d="M0 0h24v24H0z"/><path d="M12 14v2a6 6 0 0 0-6 6H4a8 8 0 0 1 8-8zm0-1c-3.315 0-6-2.685-6-6s2.685-6 6-6 6 2.685 6 6-2.685 6-6 6zm0-2c2.21 0 4-1.79 4-4s-1.79-4-4-4-4 1.79-4 4 1.79 4 4 4zm2.595 7.812a3.51 3.51 0 0 1 0-1.623l-.992-.573 1-1.732.992.573A3.496 3.496 0 0 1 17 14.645V13.5h2v1.145c.532.158 1.012.44 1.405.812l.992-.573 1 1.732-.992.573a3.51 3.51 0 0 1 0 1.622l.992.573-1 1.732-.992-.573a3.496 3.496 0 0 1-1.405.812V22.5h-2v-1.145a3.496 3.496 0 0 1-1.405-.812l-.992.573-1-1.732.992-.572zM18 19.5a1.5 1.5 0 1 0 0-3 1.5 1.5 0 0 0 0 3z"/></symbol><symbol viewBox="0 0 24 24" id="list-check-2"><path fill="none" d="M0 0h24v24H0z"/><path d="M11 4h10v2H11V4zm0 4h6v2h-6V8zm0 6h10v2H11v-2zm0 4h6v2h-6v-2zM3 4h6v6H3V4zm2 2v2h2V6H5zm-2 8h6v6H3v-6zm2 2v2h2v-2H5z"/></symbol><symbol viewBox="0 0 24 24" id="github-fill"><path fill="none" d="M0 0h24v24H0z"/><path d="M12 2C6.475 2 2 6.475 2 12a9.994 9.994 0 0 0 6.838 9.488c.5.087.687-.213.687-.476 0-.237-.013-1.024-.013-1.862-2.512.463-3.162-.612-3.362-1.175-.113-.288-.6-1.175-1.025-1.413-.35-.187-.85-.65-.013-.662.788-.013 1.35.725 1.538 1.025.9 1.512 2.338 1.087 2.912.825.088-.65.35-1.087.638-1.337-2.225-.25-4.55-1.113-4.55-4.938 0-1.088.387-1.987 1.025-2.688-.1-.25-.45-1.275.1-2.65 0 0 .837-.262 2.75 1.026a9.28 9.28 0 0 1 2.5-.338c.85 0 1.7.112 2.5.337 1.912-1.3 2.75-1.024 2.75-1.024.55 1.375.2 2.4.1 2.65.637.7 1.025 1.587 1.025 2.687 0 3.838-2.337 4.688-4.562 4.938.362.312.675.912.675 1.85 0 1.337-.013 2.412-.013 2.75 0 .262.188.574.688.474A10.016 10.016 0 0 0 22 12c0-5.525-4.475-10-10-10z"/></symbol><symbol viewBox="0 0 24 24" id="linkedin-box-fill"><path fill="none" d="M0 0h24v24H0z"/><path d="M18.335 18.339H15.67v-4.177c0-.996-.02-2.278-1.39-2.278-1.389 0-1.601 1.084-1.601 2.205v4.25h-2.666V9.75h2.56v1.17h.035c.358-.674 1.228-1.387 2.528-1.387 2.7 0 3.2 1.778 3.2 4.091v4.715zM7.003 8.575a1.546 1.546 0 0 1-1.548-1.549 1.548 1.548 0 1 1 1.547 1.549zm1.336 9.764H5.666V9.75H8.34v8.589zM19.67 3H4.329C3.593 3 3 3.58 3 4.297v15.406C3 20.42 3.594 21 4.328 21h15.338C20.4 21 21 20.42 21 19.703V4.297C21 3.58 20.4 3 19.666 3h.003z"/></symbol><symbol viewBox="0 0 24 24" id="mail-send-fill"><path fill="none" d="M0 0h24v24H0z"/><path d="M2 5.5V3.993A1 1 0 0 1 2.992 3h18.016c.548 0 .992.445.992.993v16.014a1 1 0 0 1-.992.993H2.992A.993.993 0 0 1 2 20.007V19h18V7.3l-8 7.2-10-9zM0 10h5v2H0v-2zm0 5h8v2H0v-2z"/></symbol><symbol viewBox="0 0 24 24" id="whatsapp-fill"><path fill="none" d="M0 0h24v24H0z"/><path d="M2.004 22l1.352-4.968A9.954 9.954 0 0 1 2 12C2 6.477 6.477 2 12 2s10 4.477 10 10-4.477 10-10 10a9.954 9.954 0 0 1-5.03-1.355L2.004 22zM8.391 7.308a.961.961 0 0 0-.371.1 1.293 1.293 0 0 0-.294.228c-.12.113-.188.211-.261.306A2.729 2.729 0 0 0 6.9 9.62c.002.49.13.967.33 1.413.409.902 1.082 1.857 1.971 2.742.214.213.423.427.648.626a9.448 9.448 0 0 0 3.84 2.046l.569.087c.185.01.37-.004.556-.013a1.99 1.99 0 0 0 .833-.231c.166-.088.244-.132.383-.22 0 0 .043-.028.125-.09.135-.1.218-.171.33-.288.083-.086.155-.187.21-.302.078-.163.156-.474.188-.733.024-.198.017-.306.014-.373-.004-.107-.093-.218-.19-.265l-.582-.261s-.87-.379-1.401-.621a.498.498 0 0 0-.177-.041.482.482 0 0 0-.378.127v-.002c-.005 0-.072.057-.795.933a.35.35 0 0 1-.368.13 1.416 1.416 0 0 1-.191-.066c-.124-.052-.167-.072-.252-.109l-.005-.002a6.01 6.01 0 0 1-1.57-1c-.126-.11-.243-.23-.363-.346a6.296 6.296 0 0 1-1.02-1.268l-.059-.095a.923.923 0 0 1-.102-.205c-.038-.147.061-.265.061-.265s.243-.266.356-.41a4.38 4.38 0 0 0 .263-.373c.118-.19.155-.385.093-.536-.28-.684-.57-1.365-.868-2.041-.059-.134-.234-.23-.393-.249-.054-.006-.108-.012-.162-.016a3.385 3.385 0 0 0-.403.004z"/></symbol><symbol viewBox="0 0 24 24" id="time-line"><path fill="none" d="M0 0h24v24H0z"/><path d="M12 22C6.477 22 2 17.523 2 12S6.477 2 12 2s10 4.477 10 10-4.477 10-10 10zm0-2a8 8 0 1 0 0-16 8 8 0 0 0 0 16zm1-8h4v2h-6V7h2v5z"/></symbol><symbol viewBox="0 0 24 24" id="user-line"><path fill="none" d="M0 0h24v24H0z"/><path d="M4 22a8 8 0 1 1 16 0h-2a6 6 0 1 0-12 0H4zm8-9c-3.315 0-6-2.685-6-6s2.685-6 6-6 6 2.685 6 6-2.685 6-6 6zm0-2c2.21 0 4-1.79 4-4s-1.79-4-4-4-4 1.79-4 4 1.79 4 4 4z"/></symbol><symbol viewBox="0 0 24 24" id="hashtag"><path fill="none" d="M0 0h24v24H0z"/><path d="M7.784 14l.42-4H4V8h4.415l.525-5h2.011l-.525 5h3.989l.525-5h2.011l-.525 5H20v2h-3.784l-.42 4H20v2h-4.415l-.525 5h-2.011l.525-5H9.585l-.525 5H7.049l.525-5H4v-2h3.784zm2.011 0h3.99l.42-4h-3.99l-.42 4z"/></symbol><symbol viewBox="0 0 24 24" id="bookmark-3-line"><path fill="none" d="M0 0h24v24H0z"/><path d="M4 2h16a1 1 0 0 1 1 1v19.276a.5.5 0 0 1-.704.457L12 19.03l-8.296 3.702A.5.5 0 0 1 3 22.276V3a1 1 0 0 1 1-1zm15 17.965V4H5v15.965l7-3.124 7 3.124zM12 13.5l-2.939 1.545.561-3.272-2.377-2.318 3.286-.478L12 6l1.47 2.977 3.285.478-2.377 2.318.56 3.272L12 13.5z"/></symbol><symbol viewBox="0 0 24 24" id="heart-line"><path fill="none" d="M0 0h24v24H0z"/><path d="M12 22l-9.192-9.192c-2.18-2.568-2.066-6.42.353-8.84A6.5 6.5 0 0 1 12 3.64a6.5 6.5 0 0 1 9.179 9.154L12 22zm7.662-10.509a4.5 4.5 0 0 0-6.355-6.337L12 6.282l-1.307-1.128a4.5 4.5 0 0 0-6.355 6.337l.114.132L12 19.172l7.548-7.549.114-.132z"/></symbol><symbol viewBox="0 0 24 24" id="heart-fill"><path fill="none" d="M0 0h24v24H0z"/><path d="M21.179 12.794l.013.014L12 22l-9.192-9.192.013-.014A6.5 6.5 0 0 1 12 3.64a6.5 6.5 0 0 1 9.179 9.154z"/></symbol></svg>